<svg width="24" height="24" viewBox="0 0 24 24" fill="none" xmlns="http://www.w3.org/2000/svg">
<circle opacity="0.54" cx="12" cy="12" r="12" fill="black" fill-opacity="0.38"/>
<path d="M16.295 14.885C16.6844 15.2744 16.6844 15.9056 16.295 16.295C15.9056 16.6844 15.2744 16.6844 14.885 16.295L12 13.41L9.115 16.295C8.72564 16.6844 8.09436 16.6844 7.705 16.295C7.31564 15.9056 7.31564 15.2744 7.705 14.885L10.59 12L7.705 9.115C7.31564 8.72564 7.31564 8.09436 7.705 7.705C8.09436 7.31564 8.72564 7.31564 9.115 7.705L12 10.59L14.885 7.705C15.2744 7.31564 15.9056 7.31564 16.295 7.705C16.6844 8.09436 16.6844 8.72564 16.295 9.115L13.41 12L16.295 14.885Z" fill="black" fill-opacity="0.54"/>
</svg>
