<svg xmlns="http://www.w3.org/2000/svg" width="512" height="512" viewBox="0 0 512 512" version="1.1">
	<path d="M 57 254.500 L 57 440 257 440 L 457 440 457 349.107 C 457 270.751, 457.199 258.137, 458.446 257.659 C 460.419 256.902, 462.588 249.126, 464.037 237.614 C 465.555 225.554, 464.222 215.233, 459.973 206.138 L 457 199.775 457 134.388 L 457 69 257 69 L 57 69 57 254.500 M 60 254.500 L 60 437 257 437 L 454 437 454 319.608 L 454 202.216 449.422 197.124 C 446.305 193.658, 442.423 190.836, 437.263 188.285 C 430.254 184.821, 428.897 184.510, 419.270 184.153 C 408.239 183.745, 400.600 184.796, 390 188.179 C 383.564 190.234, 368.034 197.462, 364.029 200.267 C 361.999 201.689, 362.053 201.802, 366.470 205.422 C 371.943 209.907, 379.428 220.164, 381.581 226.130 C 387.019 241.198, 384.178 258.797, 374.681 268.875 C 372.931 270.731, 369.155 273.771, 366.288 275.631 C 360.833 279.171, 344.954 285, 340.769 285 C 336.098 285, 337.213 286.208, 345.892 290.553 C 374.761 305.005, 384.180 337.826, 368.222 368.360 C 360.974 382.227, 342.626 398.152, 326.640 404.449 C 307.022 412.177, 283.674 411.629, 273.464 403.201 C 272.331 402.266, 272.663 402.731, 274.202 404.236 C 275.741 405.741, 277 407.203, 277 407.486 C 277 407.769, 267.325 408, 255.500 408 C 243.675 408, 234 407.746, 234 407.435 C 234 407.125, 235.366 405.721, 237.036 404.316 C 242.245 399.933, 243.929 395.166, 245.927 379.150 C 246.950 370.955, 247.069 370.693, 252.390 364.946 C 255.371 361.725, 259.316 356.991, 261.155 354.425 L 264.500 349.759 264.792 357.397 L 265.085 365.034 269.515 356.267 C 272.476 350.406, 276.728 344.329, 282.343 337.933 C 294.918 323.608, 306.128 317, 317.852 317 C 334.950 317, 346.200 328.258, 344.722 343.888 C 343.722 354.464, 336.483 369.883, 333.785 367.185 C 333.142 366.542, 334.228 363.317, 336.929 357.851 C 343.408 344.738, 343.402 334.944, 336.911 327.552 C 330.091 319.784, 315.845 318.746, 303.277 325.100 C 291.217 331.198, 276.781 347.539, 271.158 361.460 C 263.858 379.534, 267.153 395.303, 279.782 402.727 C 284.044 405.232, 285.370 405.491, 293.500 405.403 C 304.465 405.286, 311.590 402.975, 321.208 396.418 C 333.067 388.333, 345.497 373.170, 351.624 359.315 C 358.400 343.993, 359.936 322.187, 355.113 309.798 C 352.456 302.977, 345.488 294.927, 338.208 290.270 L 332.904 286.877 323.702 287.966 C 310.634 289.511, 301.776 287.631, 303.309 283.637 C 304.296 281.065, 312.412 280.577, 323.683 282.414 L 334.047 284.102 340.622 280.865 C 365.257 268.737, 375.933 238.793, 363.806 215.837 C 362.160 212.722, 359.744 209.169, 358.436 207.940 L 356.059 205.707 350.505 210.452 C 330.858 227.237, 311.769 255.425, 289.524 300.500 C 270.880 338.278, 261.873 352.253, 247.114 366.299 C 228.509 384.006, 195.289 401.026, 168.792 406.429 C 158.840 408.458, 140.312 408.483, 132.460 406.478 C 110.355 400.835, 96.906 385.451, 99.420 368.683 C 100.162 363.738, 103.860 357.467, 107.733 354.589 C 111.703 351.638, 118.886 351.318, 122.213 353.945 C 129.997 360.090, 124.495 377, 114.711 377 C 109.561 377, 106.745 374.220, 105.987 368.388 C 105.358 363.550, 105.339 363.529, 104.176 366.315 C 102.205 371.034, 102.740 378.553, 105.422 383.847 C 109.698 392.285, 118.603 398.693, 131.543 402.642 C 140.314 405.319, 160.670 405.054, 171.500 402.121 C 181.672 399.366, 195.646 392.499, 204 386.148 C 213.855 378.657, 229.702 361.785, 238.306 349.625 L 246 338.750 246 322.740 L 246 306.731 234.741 317.616 C 217.798 333.995, 202.557 343.784, 185 349.563 C 177.526 352.023, 174.931 352.369, 163.500 352.430 C 153.305 352.485, 149.313 352.097, 145 350.634 C 129.277 345.299, 117.360 331.667, 113.908 315.065 C 112.421 307.919, 113.323 288.501, 115.512 280.500 C 118.047 271.237, 125.071 257.328, 131.672 248.500 C 139.359 238.219, 156.018 222.366, 168.217 213.723 L 177.782 206.946 179.917 195.223 C 181.091 188.775, 182.301 182.263, 182.605 180.750 C 183.082 178.383, 183.643 178, 186.638 178 C 188.552 178, 189.859 177.581, 189.543 177.069 C 188.634 175.598, 190.104 175.129, 201.077 173.391 C 206.746 172.493, 212.005 171.138, 212.763 170.379 C 213.642 169.500, 213.733 169, 213.012 169 C 212.391 169, 212.160 168.550, 212.500 168 C 213.447 166.467, 217 166.812, 217 168.437 C 217 169.477, 217.899 169.760, 220.250 169.460 C 222.037 169.233, 229.800 168.743, 237.500 168.373 L 251.500 167.699 246.025 166.275 C 242.254 165.294, 240.438 165.185, 240.192 165.925 C 239.995 166.516, 239.001 167, 237.984 167 C 236.574 167, 236.154 166.283, 236.219 163.986 C 236.267 162.328, 236.031 160.698, 235.697 160.363 C 235.362 160.029, 230.281 160.083, 224.406 160.483 C 217.827 160.932, 214.254 161.539, 215.104 162.064 C 216.160 162.717, 216.208 163.192, 215.309 164.091 C 213.496 165.904, 210.740 164.395, 211.498 162.005 C 212.272 159.567, 210.106 159.446, 199.373 161.331 C 195.454 162.019, 191.738 162.413, 191.116 162.205 C 190.495 161.998, 187.993 158.748, 185.557 154.982 C 180.075 146.507, 171.186 137.737, 161.153 130.902 C 156.944 128.036, 153.050 125.252, 152.500 124.716 C 150.602 122.868, 164.080 124.938, 168.843 127.226 C 171.673 128.585, 176.246 129.666, 180.500 129.981 C 184.350 130.267, 187.500 130.950, 187.500 131.500 C 187.500 132.050, 186.133 133.184, 184.462 134.019 L 181.425 135.538 185.790 143.769 L 190.154 152 195.521 152 C 201.365 152, 205.227 149.623, 206.487 145.250 C 207.136 142.997, 205.684 142.084, 204.500 144 C 203.606 145.447, 198.694 145.228, 196.529 143.645 C 194.358 142.058, 195.079 139, 197.624 139 C 199.170 139, 199.161 138.835, 197.517 137.019 C 194.971 134.206, 197.036 132, 202.216 132 C 205.309 132, 206.300 132.430, 206.696 133.946 C 207.061 135.343, 208.233 135.977, 210.852 136.196 C 213.998 136.458, 214.544 136.878, 214.816 139.250 C 215.094 141.661, 214.793 142, 212.378 142 L 209.623 142 211.794 144.023 C 217.167 149.029, 231.234 148.368, 237.562 142.812 C 240.493 140.238, 240.770 139.627, 239.554 138.411 C 238.778 137.635, 236.986 137, 235.571 137 C 233.667 137, 233 136.481, 233 135 C 233 133.444, 233.667 133, 236 133 C 237.650 133, 239 132.550, 239 132 C 239 131.450, 239.708 131, 240.573 131 C 243.172 131, 241.766 127.759, 238.095 125.285 C 232.977 121.836, 226 122.348, 226 126.173 C 226 127.250, 226.466 129.002, 227.035 130.066 C 228.640 133.064, 225.204 132.570, 221.805 129.313 C 217.896 125.568, 218.018 121.568, 222.118 119.074 C 231.330 113.472, 241.846 117.573, 245.950 128.369 C 246.551 129.949, 247.717 131, 248.869 131 C 250.608 131, 250.698 130.604, 249.837 126.770 C 248.511 120.868, 244.839 116.486, 239.517 114.453 C 237.033 113.505, 235 112.332, 235 111.848 C 235 111.364, 236.503 110.251, 238.340 109.375 C 241.417 107.908, 241.936 107.916, 244.954 109.476 C 247.121 110.597, 248.566 110.834, 249.222 110.178 C 249.879 109.521, 249.417 108.770, 247.857 107.957 C 246.561 107.282, 245.395 106.647, 245.266 106.547 C 245.138 106.448, 247.388 103.921, 250.266 100.933 L 255.500 95.500 260.735 100.932 C 263.614 103.919, 265.864 106.446, 265.735 106.546 C 265.606 106.647, 264.439 107.282, 263.143 107.957 C 259.249 109.986, 262.121 111.387, 266.193 109.445 C 269.425 107.904, 269.910 107.902, 272.840 109.417 C 274.578 110.316, 276 111.380, 276 111.782 C 276 112.183, 273.772 113.534, 271.049 114.783 C 265.261 117.438, 262.009 121.516, 261.267 127.047 C 260.515 132.652, 263.284 132.407, 265.834 126.642 C 268.586 120.420, 273.934 116.615, 279.925 116.615 C 290.357 116.615, 295.508 123.871, 288.977 129.366 C 285.158 132.579, 282.415 132.962, 283.965 130.066 C 284.534 129.002, 285 127.250, 285 126.173 C 285 122.348, 278.023 121.836, 272.905 125.285 C 268.840 128.024, 267.841 131, 270.986 131 C 272.158 131, 272.840 131.450, 272.500 132 C 272.139 132.583, 273.156 133, 274.941 133 C 277.333 133, 278 133.436, 278 135 C 278 136.467, 277.333 137, 275.500 137 C 274.125 137, 273 137.450, 273 138 C 273 138.550, 272.325 139, 271.500 139 C 268.329 139, 270.819 142.345, 276 145.047 C 282.522 148.447, 293.722 147.937, 298.713 144.011 L 301.270 142 298.603 142 C 297.137 142, 295.676 141.319, 295.357 140.487 C 294.432 138.076, 296.945 136, 300.789 136 C 302.738 136, 304.037 135.704, 303.675 135.342 C 302.267 133.933, 305.436 132, 309.154 132 C 313.289 132, 315.272 134.128, 313.133 136.267 C 311.562 137.838, 311.718 139, 313.500 139 C 315.531 139, 315.461 143.609, 313.418 144.393 C 310.321 145.581, 306.101 145.003, 305.080 143.250 C 304.212 141.759, 304.056 141.913, 304.030 144.295 C 304.012 145.961, 304.992 148.083, 306.455 149.545 C 308.509 151.600, 309.876 152, 314.846 152 L 320.783 152 322.475 147.772 C 323.405 145.446, 325.401 141.715, 326.909 139.480 L 329.651 135.416 325.743 133.747 C 320.401 131.466, 321.847 130, 329.438 130 C 334.104 130, 337.229 129.327, 341.376 127.428 C 346.475 125.094, 358 122.914, 358 124.283 C 358 124.593, 354.738 127.001, 350.750 129.635 C 340.800 136.207, 327.215 150.037, 323.624 157.250 C 320.321 163.886, 320.457 163.853, 305.712 161.635 C 300.879 160.909, 296.706 160.666, 296.440 161.097 C 295.995 161.817, 286.178 161.501, 278.147 160.507 C 274.812 160.095, 274.798 160.110, 275.443 163.546 C 276.039 166.725, 275.894 167, 273.629 167 C 272.275 167, 271.006 166.518, 270.810 165.929 C 270.559 165.178, 268.962 165.219, 265.476 166.065 C 256.870 168.153, 258.129 168.995, 270.050 169.124 C 284.879 169.285, 295.055 170.246, 294.989 171.480 C 294.960 172.019, 300.657 173.248, 307.648 174.210 C 314.640 175.172, 320.819 176.419, 321.380 176.980 C 321.941 177.541, 323.612 178, 325.093 178 C 327.792 178, 329 179.529, 329 182.946 C 329 184.159, 330.517 185.290, 333.750 186.485 C 336.363 187.452, 343.098 190.615, 348.717 193.515 L 358.934 198.788 371.717 192.373 C 388.117 184.143, 400.233 180.896, 415 180.771 C 430.451 180.641, 440.751 184.042, 449.599 192.198 L 454 196.255 454 134.127 L 454 72 257 72 L 60 72 60 254.500 M 241.369 143.506 C 234.547 150.437, 224.414 151.810, 211.250 147.587 C 209.561 147.045, 209 147.259, 209 148.447 C 209 149.317, 207.537 150.921, 205.750 152.011 C 203.963 153.101, 203 153.994, 203.610 153.996 C 204.221 153.998, 206.320 152.915, 208.275 151.588 C 211.597 149.334, 212.078 149.266, 215.664 150.544 C 220.440 152.248, 225.688 152.353, 230.046 150.834 C 232.422 150.006, 233.494 149.983, 233.751 150.754 C 233.999 151.498, 235.491 151.371, 238.490 150.349 C 243.344 148.695, 247.646 149.875, 246.609 152.577 C 246.160 153.747, 247.769 154, 255.654 154 C 263.858 154, 265.073 153.793, 264.058 152.570 C 263.108 151.425, 263.287 150.917, 264.950 150.027 C 266.950 148.957, 270.170 149.429, 275.414 151.561 C 276.864 152.151, 277.129 152.018, 276.508 151.012 C 275.874 149.988, 276.236 149.850, 278.094 150.406 C 283.901 152.147, 289.096 152.199, 294.088 150.566 C 299.108 148.924, 299.301 148.934, 301.436 150.940 C 302.642 152.073, 304.038 153, 304.537 153 C 305.036 153, 304.445 152.299, 303.223 151.443 C 302 150.587, 301 149.237, 301 148.443 C 301 147.649, 300.887 147.005, 300.750 147.011 C 300.613 147.017, 298.291 147.692, 295.591 148.511 C 285.180 151.669, 274.490 149.490, 267.857 142.857 C 264.301 139.301, 261 137.842, 261 139.826 C 261 140.938, 264.917 144.439, 268 146.084 L 270.500 147.417 267.500 148.033 C 265.850 148.372, 264.072 148.278, 263.550 147.824 C 262.087 146.555, 261 146.843, 261 148.500 C 261 149.325, 260.325 150, 259.500 150 C 258.675 150, 258 150.675, 258 151.500 C 258 153.902, 255.165 153.238, 252.121 150.124 C 250.364 148.326, 248.782 147.511, 247.905 147.949 C 247.132 148.336, 245.150 148.362, 243.500 148.009 L 240.500 147.366 244.170 145.768 C 247.312 144.399, 250 141.540, 250 139.566 C 250 139.255, 248.988 139.070, 247.750 139.155 C 246.512 139.240, 243.641 141.198, 241.369 143.506 M 235.500 153 C 233.824 153.720, 234.026 153.871, 236.750 153.930 C 238.537 153.968, 240 153.550, 240 153 C 240 151.813, 238.263 151.813, 235.500 153 M 270.200 153.109 C 270.531 154.106, 273.474 154.698, 280.581 155.199 C 286.036 155.584, 296.238 156.622, 303.251 157.508 C 310.263 158.393, 316.563 158.753, 317.251 158.309 C 317.995 157.827, 315.874 157.239, 312 156.854 C 298.782 155.541, 293 154.707, 293 154.111 C 293 153.775, 289.063 153.499, 284.250 153.498 C 279.438 153.497, 274.204 153.096, 272.620 152.607 C 270.339 151.903, 269.835 152.007, 270.200 153.109 M 217 154.201 C 217 154.640, 218.575 155, 220.500 155 C 222.425 155, 224 154.824, 224 154.609 C 224 154.395, 222.425 154.035, 220.500 153.810 C 218.575 153.585, 217 153.761, 217 154.201 M 198.750 154.662 C 199.438 154.940, 200.563 154.940, 201.250 154.662 C 201.938 154.385, 201.375 154.158, 200 154.158 C 198.625 154.158, 198.063 154.385, 198.750 154.662 M 309.813 154.683 C 310.534 154.972, 311.397 154.936, 311.729 154.604 C 312.061 154.272, 311.471 154.036, 310.417 154.079 C 309.252 154.127, 309.015 154.364, 309.813 154.683 M 191 156.500 C 191.690 157.332, 193.638 157.929, 195.372 157.840 L 198.500 157.680 195 157.198 C 191.688 156.742, 191.634 156.675, 194 155.958 C 196.306 155.258, 196.238 155.192, 193.128 155.100 C 190.238 155.014, 189.933 155.215, 191 156.500 M 209.813 155.683 C 210.534 155.972, 211.397 155.936, 211.729 155.604 C 212.061 155.272, 211.471 155.036, 210.417 155.079 C 209.252 155.127, 209.015 155.364, 209.813 155.683 M 314.083 155.359 C 315.278 156.389, 320 156.916, 320 156.019 C 320 155.459, 318.575 155, 316.833 155 C 315.092 155, 313.854 155.162, 314.083 155.359 M 239 161.500 C 239 163.352, 241.702 163.364, 249 161.543 L 254.500 160.170 246.750 160.085 C 240.490 160.016, 239 160.288, 239 161.500 M 261.500 161.559 C 269.469 163.357, 272 163.343, 272 161.500 C 272 160.280, 270.462 160.019, 263.750 160.102 L 255.500 160.205 261.500 161.559 M 218.601 163.303 C 216.947 164.512, 216.939 164.704, 218.477 165.981 C 220.712 167.835, 229.228 167.883, 231.435 166.053 C 233.094 164.677, 233.093 164.541, 231.399 163.303 C 230.419 162.586, 227.540 162, 225 162 C 222.460 162, 219.581 162.586, 218.601 163.303 M 280.104 162.914 C 277.849 164.342, 279.616 166.837, 283.382 167.544 C 286.995 168.222, 294 166.515, 294 164.958 C 294 162.416, 283.362 160.852, 280.104 162.914 M 295.565 162.895 C 294.839 164.070, 297.585 165.097, 299.494 164.364 C 301.441 163.617, 300.419 162, 298 162 C 296.965 162, 295.869 162.403, 295.565 162.895 M 197.403 165.496 C 194.387 167.900, 194.756 168.423, 200.159 169.397 C 204.014 170.092, 212.875 167.396, 211.315 166.002 C 210.867 165.601, 208.168 164.833, 205.319 164.294 C 200.664 163.414, 199.860 163.536, 197.403 165.496 M 303 164.721 C 301.625 164.968, 300.072 165.581, 299.550 166.085 C 299.028 166.588, 297.565 167, 296.300 167 C 293.647 167, 293.218 168.763, 295.645 169.694 C 296.629 170.072, 297.793 169.635, 298.545 168.607 C 299.710 167.014, 300.075 167.005, 303.605 168.479 C 307.116 169.947, 309.723 169.917, 315.285 168.347 C 316.878 167.897, 316.807 167.636, 314.627 165.921 C 312.279 164.074, 308.677 163.702, 303 164.721 M 218 175.101 C 194.781 177.368, 199.587 177.769, 251.417 177.883 C 280.521 177.947, 304.145 177.812, 303.916 177.582 C 303.686 177.353, 295.319 176.453, 285.321 175.582 C 266.205 173.918, 232.569 173.677, 218 175.101 M 266.035 182.934 C 265.402 184.117, 265 194.403, 265 209.404 L 265 233.940 261.399 231.496 C 258.070 229.237, 255.533 228.474, 249 227.770 L 246.500 227.500 246.230 206.125 L 245.959 184.751 241.730 185.423 C 234.663 186.545, 217.758 192.600, 207.856 197.556 C 175.306 213.845, 144.495 243.701, 129.483 273.500 C 122.079 288.196, 119.655 298.078, 120.188 311.396 C 120.525 319.818, 121.063 322.538, 123.425 327.734 C 130.788 343.933, 149.641 352.332, 171.533 349.167 C 193.341 346.014, 215.080 333.284, 237.250 310.685 L 246 301.766 246 266.883 L 246 232 240.710 232 C 234.787 232, 225.850 234.088, 219.220 237.021 C 203.693 243.889, 179.956 265.966, 170.321 282.500 C 163.445 294.299, 160.208 306.723, 161.982 314.500 C 162.998 318.953, 168.711 325, 171.904 325 C 172.967 325, 174.548 325.273, 175.418 325.607 C 178.290 326.709, 177.065 328, 173.148 328 C 165.163 328, 157.624 319.721, 155.790 308.938 C 152.877 291.816, 162.961 271.114, 182.680 253.727 C 202.793 235.993, 221.049 228.366, 241.396 229.196 C 255.128 229.756, 260.871 232.801, 265.544 242 C 267.838 246.515, 268.551 257.962, 266.976 265 C 265.763 270.417, 264.027 309.054, 265 308.950 C 265.275 308.921, 269.533 302.524, 274.463 294.734 C 291.255 268.198, 309.181 245.760, 331.454 223.397 C 339.179 215.641, 347.300 207.850, 349.500 206.084 L 353.500 202.873 350.125 200.009 C 346.745 197.142, 337.730 191.989, 332.844 190.131 L 330.244 189.142 332.617 200.321 C 333.922 206.469, 334.984 211.950, 334.977 212.500 C 334.970 213.050, 333.624 211.069, 331.986 208.098 C 325.858 196.980, 317.060 187.494, 310.598 185.037 C 306.561 183.502, 284.692 181, 275.315 181 C 268.187 181, 266.930 181.262, 266.035 182.934 M 220.500 183.061 C 206.150 184.297, 198.308 187.903, 189 197.543 C 185.975 200.676, 183.950 203.053, 184.500 202.824 C 185.050 202.595, 190.874 199.760, 197.443 196.522 C 204.012 193.285, 215.262 188.717, 222.443 186.372 C 235.901 181.976, 235.766 181.745, 220.500 183.061 M 457.114 231 C 457.192 251.128, 457.289 252.213, 458.626 248 C 460.757 241.282, 461.490 226.397, 460.062 218.829 C 457.701 206.313, 457.029 209.086, 457.114 231" stroke="none" fill="black" fill-rule="evenodd"/>
</svg>