<svg height="712" viewBox="0 0 783 824" fill="none" xmlns="http://www.w3.org/2000/svg">
<path opacity="0.04" d="M177.633 872.995C179.075 873.933 181.037 874.544 183.319 874.726C186.579 874.986 191.067 874.326 192.99 871.61C196.179 867.106 199.354 862.482 202.426 858.012C208.827 848.695 215.445 839.061 222.492 830.035C230.449 819.842 242.137 812.844 259.25 808.028C274.53 812.422 281.813 801.509 287.676 792.725C291.011 787.729 295.183 783.105 299.216 778.634C300.125 777.627 301.032 776.622 301.93 775.612C302.289 775.209 303.066 774.927 303.881 774.671C303.889 775.745 303.877 776.824 303.515 777.42C301.971 779.962 300.426 782.505 298.883 785.048C287.875 803.178 276.491 821.928 264.891 840.102C256.038 853.971 252.904 869.651 249.875 884.815C248.928 889.558 247.947 894.463 246.81 899.219C245.964 902.747 249.765 907.765 252.36 910.101C263.428 920.065 272.376 925.495 281.372 927.71C292.737 930.506 303.758 927.844 315.067 919.571C317.396 917.867 321.845 917.885 324.988 918.049C329.684 918.293 334.467 918.874 339.091 919.436C341.849 919.771 344.701 920.116 347.519 920.39C352.733 920.896 355.605 921.176 358.028 919.645C360.342 918.183 361.813 915.339 364.743 909.672C365.12 908.939 365.369 908.185 365.609 907.453C365.921 906.503 366.246 905.52 366.735 905.097C367.24 904.661 367.746 904.199 368.282 903.708C370.32 901.847 372.856 899.529 374.621 899.617C384.363 900.111 391.847 897.521 396.866 891.922C401.151 887.137 403.749 880.147 404.806 870.551C405.424 864.934 407.239 860.506 410.683 856.194C423.016 840.757 423.265 840.321 424.039 832.895L424.053 832.749C424.229 831.066 424.56 829.286 424.879 827.566C425.628 823.528 426.403 819.351 425.442 815.494C420.622 796.172 428.846 782.081 438.451 769.735C448.903 756.3 457.85 741.4 466.502 726.992L466.579 726.865C469.689 721.685 474.096 717.212 478.358 712.883C485.788 705.339 493.471 697.537 495.375 685.394C496.053 681.07 500.888 676.18 505.092 673.469C519.322 664.296 528.765 651.49 536.125 640.173C543.284 629.167 551.279 618.416 559.009 608.018C562.281 603.619 565.661 599.074 568.94 594.557C578.954 590.338 583.115 581.713 587.14 573.368C589.522 568.429 591.985 563.324 595.639 559.341C607.215 546.721 617.462 532.786 627.375 519.31C637.148 506.021 646.589 492.16 655.721 478.755C657.104 476.724 658.488 474.693 659.873 472.663C665.262 464.766 670.351 457.308 678.336 452.227C687.788 446.21 693.381 437.413 696.474 423.702C701.577 401.078 718.83 374.872 728.661 361.265C739.167 346.725 749.202 331.495 758.908 316.767C762.503 311.313 766.219 305.673 769.904 300.151C770.648 299.038 771.053 297.802 771.446 296.608C771.672 295.921 771.886 295.273 772.152 294.678C773.423 291.841 771.61 287.548 769.673 284.734C768.595 283.17 765.727 279.558 762.354 279.748C758.464 279.968 753.386 280.814 751.269 283.601C744.806 292.114 738.511 300.965 732.423 309.525C727.759 316.086 722.935 322.869 718.073 329.445C714.282 334.571 707.615 334.461 699.768 329.14C696.729 327.079 694.812 323.995 694.507 320.678C694.222 317.592 695.379 314.596 697.762 312.241C698.926 311.092 700.212 310.015 701.457 308.973C705.805 305.335 710.299 301.572 710.707 294.058C710.862 291.19 711.896 288.353 712.989 285.349C713.851 282.986 714.741 280.543 715.198 278.02C719.965 251.714 731.119 231.319 749.293 215.671C752.152 213.21 754.59 209.64 755.817 206.12C756.341 204.619 756.87 203.117 757.4 201.614C760.609 192.519 763.928 183.117 765.714 173.529C766.964 166.83 771.029 163.64 775.736 159.947C776.662 159.22 777.618 158.47 778.563 157.683C780.959 155.682 782.356 153.07 782.601 150.13C782.868 146.92 781.734 143.654 779.404 140.935C774.699 135.448 769.602 137.404 762.388 142.64C760.799 143.793 759.252 145.277 757.754 146.713C755.053 149.302 752.261 151.98 749.88 151.985C743.828 151.993 738.106 153.645 732.574 155.241C725.695 157.227 719.197 159.101 712.222 158.01C710.886 157.8 709.116 156.755 708.816 156.256C708.192 151.989 707.988 147.552 707.794 143.259C707.74 142.072 707.686 140.885 707.623 139.701C707.317 133.938 700.74 127.394 695.28 127.416C686.833 127.451 676.251 128.778 669.338 138.818C667.547 141.418 665.854 144.172 664.216 146.835C659.052 155.231 653.711 163.911 644.762 168.574C631.924 175.264 624.053 185.631 616.469 196.563C610.968 204.494 605.449 212.077 598.431 217.681C587.284 226.578 578.715 237.569 571.558 247.17C570.338 248.809 569.12 250.545 567.942 252.223C563.672 258.313 559.256 264.61 553.497 268.041C539.666 276.282 530.675 288.585 521.981 300.484C519.706 303.596 517.355 306.816 514.955 309.905C507.218 319.872 499.217 330.179 488.043 338.193C482.496 342.171 477.988 347.193 474.645 353.119C471.42 358.834 469.262 365.42 468.231 372.69C467.559 377.427 464.507 383.011 460.814 386.27L459.531 387.4C451.572 394.413 443.343 401.665 437.065 410.89C432.494 417.604 427.574 424.282 422.815 430.739C414.288 442.31 405.471 454.276 398.298 466.949C387.032 486.848 370.629 500.359 353.262 514.663L352.519 515.276C352.168 515.565 350.997 515.565 350.14 515.563C350.037 515.563 349.935 515.563 349.834 515.563C349.824 515.426 349.815 515.289 349.805 515.156C349.72 513.954 349.641 512.819 349.964 512.019C359.137 489.323 373.801 469.551 387.982 450.428C392.524 444.304 397.221 437.969 401.677 431.624C402.277 430.77 403.587 430.118 404.852 429.487C405.197 429.315 405.539 429.145 405.866 428.971C412.731 425.343 417.82 421.138 421.42 416.115C425.39 410.579 427.474 404.197 427.79 396.606C428.033 390.744 429.69 385.047 432.222 381.367C438.667 371.997 444.774 362.156 450.682 352.636C467.234 325.968 484.347 298.394 510.603 278.532C515.217 275.043 518.629 270 521.929 265.126C522.956 263.609 524.017 262.043 525.083 260.57C532.963 249.705 541.601 240.248 551.496 231.657C561.443 223.02 569.287 211.565 576.469 200.572C580.631 194.202 586.743 189.686 592.653 185.319C598.677 180.866 604.909 176.263 609.249 169.65C617.239 157.474 625.297 145.055 633.092 133.044C636.227 128.212 639.362 123.379 642.502 118.55L642.962 118.846L643.766 117.609C647.018 112.608 650.279 107.613 653.54 102.618C661.526 90.3867 669.782 77.7395 677.763 65.2079C680.141 61.474 681.185 57.6702 680.869 53.9018C680.565 50.2761 678.984 46.5646 676.166 42.8747C674.234 40.344 672.64 37.3854 671.098 34.5245C669.067 30.7582 666.968 26.8635 664.013 23.7176C656.284 15.4918 650.016 11.3313 643.685 10.224C637.373 9.12106 630.875 11.0206 622.616 16.3893C613.228 22.4889 603.52 28.7977 597.202 39.3253C593.935 44.7675 590.664 49.1055 587.198 52.589C586.104 53.6893 584.131 54.1778 582.044 54.6967C581.588 54.8105 581.123 54.9248 580.661 55.0494C580.645 54.9662 580.628 54.8831 580.612 54.8C580.404 53.7486 580.169 52.5591 580.434 52.0393C584.44 44.2276 588.602 36.3256 592.626 28.6823C596.342 21.6261 600.184 14.3275 603.9 7.11402C604.762 5.44202 603.374 2.19473 601.829 1.34861C599.945 0.315325 597.411 -0.134909 595.372 0.199507C583.557 2.13471 576.14 10.2468 571.587 16.1797C566.636 22.6338 562.328 29.7065 558.162 36.5468C549.838 50.2124 541.232 64.3427 527.2 73.8437C526.563 74.275 526.156 75.015 525.959 76.107C525.509 78.5921 526.194 83.1802 527.751 85.3719C531.031 89.9826 531.494 94.4102 529.257 99.7308C527.257 104.485 525.754 106.489 523.712 107.128C521.499 107.819 518.199 107.134 511.945 104.688C508.231 103.235 505.405 102.971 501.113 105.726C496.646 108.595 491.691 110.985 486.383 112.831C483.04 113.993 480.153 114.002 478.032 112.858C476.465 112.014 475.374 110.515 474.874 108.53C474.211 105.887 473.554 103.191 472.92 100.584C470.906 92.3165 468.823 83.7659 466.186 75.5207C463.628 67.5293 457.404 61.8417 449.112 59.9177C448.745 59.832 440.086 57.8695 437.166 61.2C430.909 68.3355 423.495 74.6036 416.325 80.664C407.928 87.7625 399.244 95.1033 392.395 103.866C384.901 113.452 375.72 121.367 366.839 129.021C360.443 134.534 353.827 140.234 347.882 146.525C347.462 146.971 346.34 147.191 345.316 147.381C345.354 146.92 345.384 146.459 345.415 146.006C345.575 143.642 345.726 141.41 346.653 139.754C351.88 130.437 357.373 121.056 362.686 111.984C366.723 105.088 370.899 97.9563 374.932 90.8966C375.733 89.4935 375.459 87.7472 375.217 86.2067C375.12 85.588 375.028 85.0049 375.007 84.4883L374.931 82.6575L373.156 83.1116C372.713 83.2261 372.199 83.2983 371.653 83.3761C370.286 83.5718 368.735 83.7955 367.652 84.8104C364.193 88.0486 361.098 91.7404 358.104 95.3132C351.462 103.237 345.19 110.722 335.047 114.049L334.538 114.217L334.253 114.672C328.021 124.647 318.983 132.357 310.242 139.814C302.04 146.811 293.555 154.048 287.301 163.192C275.283 180.761 259.426 195.031 244.091 208.832C238.84 213.558 233.409 218.445 228.208 223.396C216.12 234.906 206.394 245.094 198.225 257.407C196.637 259.798 195.039 262.272 193.491 264.661C185.831 276.5 177.912 288.742 167.552 297.555C152.866 310.052 142.04 325.409 131.569 340.262C128.178 345.071 124.672 350.046 121.087 354.849C117.362 359.838 113.808 365.072 110.37 370.133C102.355 381.936 94.0642 394.14 83.1397 403.903C80.5518 406.214 77.3016 409.773 76.5149 413.599C73.4757 428.37 64.3675 437.804 50.6559 448.236C46.6347 451.296 41.9233 457.307 41.0762 463.276C38.5521 481.085 29.7676 496.349 21.2721 511.111C18.7609 515.475 16.1655 519.987 13.7541 524.516C11.7518 528.277 12.161 533.118 12.5551 537.801C12.6707 539.174 12.7813 540.472 12.8295 541.729C12.9112 543.886 14.9404 546.258 16.7995 547.397C18.3813 548.361 21.8295 548.248 23.1897 546.809C26.7597 543.038 30.2708 539.105 33.6673 535.303C36.3741 532.27 39.175 529.134 41.9821 526.108C43.52 524.449 46.7846 523.586 49.9181 524.01C52.1425 524.311 53.8495 525.221 54.4859 526.444C56.4146 530.16 57.2189 533.658 56.4866 535.147C51.6697 544.93 46.0254 554.814 39.7115 564.527C34.1051 573.152 28.2142 581.806 22.5168 590.175C16.696 598.727 10.6749 607.572 4.94488 616.402C-0.486155 624.773 -1.14653 634.354 2.98585 644.877C4.88934 649.728 8.27006 651.973 13.0356 651.549C13.7132 651.488 14.4013 651.442 15.1292 651.394C18.4177 651.174 21.8185 650.947 24.5781 649.354C26.5238 648.232 28.5219 647.116 30.4537 646.037C44.6637 638.099 59.3582 629.89 66.4063 612.019C69.4689 604.25 74.5146 597.019 79.3928 590.028C81.9928 586.302 84.681 582.45 87.0704 578.524C95.0702 565.383 103.723 557.541 115.128 553.101C118.591 551.752 121.248 548.743 123.817 545.834C125.147 544.326 126.524 542.767 127.96 541.511C128.612 540.942 129.637 540.608 130.736 540.268C130.753 540.97 130.733 541.635 130.528 542.033C128.534 545.896 126.444 549.797 124.423 553.571C120.309 561.254 116.056 569.197 112.355 577.258C111.301 579.55 112.419 583.182 115.773 588.356C117.128 590.444 119.733 591.689 122.923 591.771C126.954 591.874 130.965 590.14 132.903 587.455C133.32 586.879 133.774 586.296 134.213 585.732C134.931 584.811 135.675 583.855 136.337 582.832C139.167 578.444 141.989 573.948 144.717 569.601C150.887 559.768 157.266 549.602 164.149 540.072C168.644 533.847 175.439 524.44 183.401 521.089C193.762 516.729 201.089 509.301 208.173 502.116C211.483 498.759 214.907 495.287 218.566 492.223C229.984 482.662 238.101 470.169 243.384 454.028C244.413 450.889 246.915 447.936 249.227 445.46C263.372 430.312 275.443 413.231 287.117 396.711C292.629 388.913 298.328 380.849 304.164 373.106C305.838 370.885 307.43 368.488 308.971 366.171C312.641 360.651 316.434 354.942 321.455 351.48C335.888 341.527 345.17 327.572 354.145 314.076C356.488 310.554 358.911 306.911 361.386 303.398C368.157 293.791 375.371 284.239 382.347 275.002C385.393 270.968 388.54 266.801 391.617 262.676C407.566 252.519 417.88 237.301 427.856 222.582C430.426 218.79 433.082 214.869 435.787 211.113C442.388 201.939 448.543 192.237 454.495 182.855C457.531 178.069 460.67 173.12 463.827 168.308C469.949 158.978 493.494 137.938 504.028 132.278C504.328 132.535 504.674 132.891 504.838 133.135C503.143 147.164 494.969 158.719 488.02 167.232C472.119 186.713 459.006 208.362 446.324 229.297C444.514 232.285 442.703 235.274 440.884 238.26C436.117 246.08 431.21 254.456 428.195 263.319C424.931 272.916 424.181 282.311 425.901 292.043C428.18 304.942 415.215 316.623 411.187 319.895C395.162 332.915 383.726 349.663 372.667 365.857L371.277 367.892C365.77 375.946 359.924 383.986 354.27 391.761C345.671 403.586 336.78 415.814 328.864 428.394C323.802 436.438 317.641 443.947 311.684 451.209C302.445 462.47 292.894 474.112 287.046 488.164C276.325 496.01 271.591 507.08 266.585 518.793C266.281 519.505 265.974 520.218 265.668 520.933C264.677 523.241 263.646 525.55 262.653 527.784C257.496 539.355 252.626 550.285 251.223 563.711C249.598 579.234 240.092 593.24 224.446 603.179C214.59 604.458 206.139 608.51 198.62 615.558C191.657 622.087 186.294 630.349 181.399 638.251C175.76 647.354 169.685 656.415 163.81 665.178C161.396 668.778 158.899 672.5 156.466 676.178C149.135 687.254 145.056 697.384 143.628 708.058C142.959 713.054 139.347 716.872 135.049 720.994C131.4 724.495 126.991 733.842 124.082 741.422C121.178 748.99 118.351 758.462 119.13 762.349C119.92 766.28 122.878 769.916 125.22 772.275C127.679 774.751 130.39 777.062 133.011 779.295C137.621 783.225 141.977 786.937 145.185 791.535C150.638 799.354 157.302 800.833 164.356 802.397C170.478 803.752 176.346 807.377 182.021 810.88C182.657 811.273 183.291 811.664 183.922 812.05C191.006 816.38 193.068 822.644 189.585 829.229C187.726 832.742 185.754 836.283 183.844 839.705C180.308 846.047 176.652 852.605 173.546 859.315C172.087 862.469 173.809 867.26 175.514 870.724C175.938 871.598 176.669 872.369 177.633 872.995ZM307.122 770.26L304.835 771.223C304.411 771.4 303.925 771.551 303.409 771.709C302.13 772.103 300.68 772.549 299.711 773.638C298.818 774.643 297.915 775.644 297.011 776.644C292.904 781.195 288.66 785.901 285.205 791.076C278.146 801.653 272.184 808.847 259.689 805.062L259.277 804.937L258.861 805.053C240.881 810.051 228.581 817.407 220.149 828.207C213.045 837.305 206.402 846.977 199.976 856.33C196.909 860.793 193.74 865.407 190.563 869.895C189.634 871.207 186.62 872.012 183.551 871.767C180.881 871.555 178.768 870.626 178.166 869.403C176.249 865.503 175.506 862.112 176.228 860.55C179.288 853.943 182.917 847.433 186.426 841.138C188.343 837.701 190.325 834.146 192.197 830.603C196.383 822.693 193.792 814.611 185.46 809.505C184.832 809.121 184.201 808.731 183.569 808.342C177.684 804.709 171.599 800.951 164.987 799.486C157.155 797.748 152.076 796.232 147.608 789.826C144.183 784.913 139.476 780.903 134.925 777.023C132.349 774.829 129.686 772.558 127.313 770.169C124.408 767.244 122.529 764.255 122.028 761.753C120.924 756.246 130.865 729.095 137.092 723.124C141.8 718.608 145.761 714.387 146.558 708.439C147.924 698.226 151.854 688.491 158.929 677.802C161.358 674.131 163.851 670.412 166.263 666.815C172.154 658.031 178.244 648.947 183.911 639.798C194.425 622.824 204.783 608.569 225.127 606.066L225.456 606.026L225.735 605.85C242.334 595.405 252.43 580.544 254.161 564.004C255.516 551.046 260.292 540.326 265.35 528.977C266.35 526.734 267.383 524.415 268.383 522.09C268.692 521.373 268.998 520.658 269.301 519.944C274.195 508.498 278.816 497.688 289.11 490.311L289.457 490.062L289.618 489.668C295.282 475.852 304.782 464.274 313.968 453.076C319.984 445.744 326.203 438.162 331.365 429.96C339.228 417.464 348.088 405.278 356.66 393.493C362.327 385.7 368.184 377.643 373.717 369.553L375.107 367.516C386.55 350.76 397.359 334.931 413.049 322.185C416.569 319.325 421.503 314.663 425.021 308.695C428.508 302.784 429.783 297.003 428.813 291.513C425.287 271.563 432.981 256.894 443.408 239.791C445.23 236.803 447.043 233.81 448.854 230.821C461.481 209.974 474.54 188.417 490.31 169.095C497.56 160.211 506.103 148.098 507.809 133.179C508.011 131.442 505.546 129.69 505.44 129.617C505.152 129.416 504.278 128.803 503.36 129.261C492.902 134.492 467.766 156.864 461.336 166.666C458.167 171.496 455.021 176.455 451.979 181.25C446.051 190.596 439.919 200.261 433.368 209.365C430.639 213.156 427.97 217.093 425.389 220.901C415.534 235.44 405.345 250.475 389.788 260.299L389.555 260.446L389.391 260.668C386.271 264.856 383.069 269.097 379.971 273.198C372.981 282.455 365.753 292.026 358.953 301.673C356.454 305.218 354.02 308.878 351.666 312.416C342.845 325.678 333.725 339.392 319.763 349.021C314.271 352.807 310.316 358.758 306.49 364.511C304.975 366.793 303.407 369.151 301.785 371.303C295.921 379.082 290.209 387.166 284.684 394.982C273.067 411.42 261.055 428.417 247.048 443.418C244.515 446.13 241.763 449.399 240.554 453.088C235.448 468.685 227.629 480.737 216.65 489.93C212.883 493.085 209.41 496.61 206.05 500.015C199.17 506.991 192.057 514.205 182.241 518.336C173.511 522.009 166.424 531.823 161.734 538.317C154.793 547.926 148.389 558.134 142.195 568.008C139.471 572.348 136.656 576.836 133.835 581.207C133.246 582.12 132.575 582.981 131.866 583.892C131.41 584.476 130.94 585.081 130.49 585.701C129.121 587.596 126.038 588.865 122.991 588.788C120.797 588.732 119.071 587.98 118.257 586.726C115.234 582.061 114.636 579.369 115.044 578.482C118.708 570.503 122.939 562.6 127.032 554.956C129.057 551.172 131.152 547.26 133.156 543.38C133.769 542.194 133.72 540.834 133.678 539.635C133.66 539.152 133.644 538.697 133.67 538.289L133.813 535.95L131.638 536.819C131.141 537.017 130.598 537.185 130.024 537.362C128.616 537.797 127.159 538.247 125.999 539.26C124.418 540.641 122.976 542.274 121.583 543.852C119.141 546.618 116.834 549.23 114.043 550.318C101.991 555.011 92.8884 563.229 84.5266 576.965C82.1864 580.812 79.5233 584.626 76.9496 588.314C71.9719 595.446 66.8261 602.821 63.6348 610.915C56.9765 627.8 43.3849 635.393 28.9949 643.432C27.0534 644.516 25.0478 645.638 23.0834 646.77C20.9191 648.017 17.8696 648.221 14.9203 648.418C14.2083 648.467 13.472 648.515 12.7607 648.578C9.28125 648.888 7.17981 647.453 5.73848 643.78C1.97789 634.199 2.54449 625.528 7.42589 618.005C13.1384 609.202 19.148 600.372 24.9619 591.833C30.6686 583.45 36.5677 574.784 42.1917 566.132C48.569 556.321 54.2718 546.334 59.1403 536.444C60.8446 532.98 58.2888 527.331 57.11 525.063C56.0145 522.952 53.534 521.49 50.3063 521.053C46.8961 520.591 42.3229 521.347 39.7951 524.074C36.9704 527.12 34.1612 530.268 31.4442 533.31C28.0616 537.097 24.5673 541.012 21.0259 544.752C20.6474 545.056 18.8822 545.178 18.3396 544.845C17.0869 544.087 15.8235 542.472 15.7904 541.597C15.74 540.272 15.6229 538.88 15.508 537.533C15.1489 533.28 14.7787 528.882 16.37 525.893C18.7576 521.407 21.3407 516.917 23.8396 512.576C32.476 497.569 41.4067 482.051 44.0095 463.675C44.6251 459.341 48.1734 453.834 52.4474 450.581C63.6211 442.079 75.8432 431.554 79.4173 414.18C79.904 411.815 81.9254 408.945 85.1124 406.099C96.3108 396.092 104.705 383.734 112.822 371.784C116.241 366.748 119.778 361.542 123.462 356.607C127.071 351.771 130.589 346.782 133.991 341.955C144.355 327.253 155.072 312.051 169.471 299.8C180.164 290.703 188.204 278.276 195.979 266.257C197.521 263.874 199.116 261.408 200.694 259.031C208.71 246.948 218.308 236.9 230.251 225.53C235.423 220.608 240.837 215.734 246.073 211.023C261.538 197.105 277.53 182.715 289.748 164.854C295.78 156.035 304.111 148.929 312.167 142.058C320.948 134.567 330.026 126.825 336.485 116.684C347.135 113.01 353.867 104.98 360.38 97.2077C363.317 93.7044 366.353 90.0809 369.681 86.9654C370.083 86.5901 371.141 86.4391 372.075 86.3035C372.126 86.2964 372.177 86.2894 372.228 86.2822C372.247 86.4075 372.267 86.5312 372.286 86.6541C372.443 87.6602 372.642 88.9125 372.356 89.411C368.33 96.4571 364.161 103.581 360.126 110.471C354.807 119.554 349.307 128.947 344.067 138.288C342.811 140.526 342.631 143.203 342.456 145.791C342.379 146.931 342.306 148.006 342.147 149.032L341.786 151.362L344.043 150.68C344.539 150.529 345.118 150.423 345.729 150.31C347.234 150.033 348.938 149.718 350.042 148.55C355.885 142.371 362.44 136.72 368.78 131.257C377.767 123.51 387.062 115.498 394.735 105.682C401.397 97.1592 409.962 89.9202 418.244 82.9181C425.497 76.7851 432.998 70.4464 439.401 63.1445C440.351 62.0613 444.576 61.8983 448.445 62.7953C455.801 64.5029 461.097 69.3377 463.362 76.4103C465.967 84.5576 468.038 93.0559 470.039 101.271C470.676 103.884 471.333 106.585 471.998 109.238C472.704 112.053 474.306 114.203 476.625 115.456C479.498 117.008 483.211 117.065 487.361 115.621C492.891 113.697 498.058 111.204 502.72 108.211C506.173 105.993 507.933 106.29 510.867 107.439C516.832 109.772 521.21 111.006 524.6 109.948C528.031 108.877 529.974 105.681 531.995 100.87C534.64 94.582 534.06 89.108 530.174 83.6402C528.873 81.8101 528.524 77.2108 528.988 76.2085C543.484 66.3483 552.237 51.9771 560.701 38.0806C564.825 31.3077 569.092 24.3033 573.946 17.9771C580.785 9.06416 587.541 4.48206 595.855 3.11878C597.252 2.88996 599.07 3.2162 600.384 3.92967C600.72 4.19642 601.22 5.369 601.21 5.84798C597.518 13.0162 593.698 20.271 590.003 27.2886C585.975 34.9376 581.809 42.8489 577.796 50.6743C577.059 52.1113 577.401 53.8394 577.704 55.3647C577.826 55.9794 577.94 56.559 577.982 57.0734L578.139 58.9932L579.955 58.3524C580.819 58.0487 581.764 57.8134 582.765 57.5647C585.156 56.9716 587.629 56.3575 589.308 54.6697C592.946 51.0142 596.362 46.4905 599.753 40.8391C605.718 30.8987 615.134 24.7811 624.24 18.8645C631.821 13.9369 637.664 12.1702 643.18 13.1342C648.837 14.1233 654.595 18.0102 661.855 25.7363C664.544 28.6006 666.461 32.1556 668.49 35.9186C670.087 38.8814 671.738 41.9437 673.812 44.6628C678.837 51.2482 679.298 57.2646 675.265 63.6011C667.292 76.1186 659.041 88.7587 651.06 100.983C648.066 105.568 645.074 110.152 642.087 114.742L641.627 114.447L640.823 115.683C637.414 120.925 634.011 126.171 630.607 131.416C622.815 143.423 614.758 155.839 606.772 168.009C602.724 174.179 596.976 178.426 590.894 182.921C584.773 187.445 578.444 192.122 573.99 198.938C566.922 209.755 559.214 221.017 549.556 229.405C539.488 238.147 530.7 247.767 522.687 258.817C521.593 260.327 520.518 261.915 519.477 263.451C516.312 268.126 513.041 272.961 508.819 276.154C482.123 296.348 464.862 324.163 448.168 351.06C442.279 360.55 436.189 370.362 429.783 379.673C426.907 383.856 425.102 389.977 424.832 396.47C424.277 409.801 417.811 419.293 404.485 426.336C404.178 426.499 403.858 426.657 403.535 426.818C402.013 427.577 400.286 428.434 399.252 429.906C394.818 436.22 390.134 442.538 385.602 448.647C371.309 467.919 356.53 487.848 347.216 510.894C346.635 512.332 346.744 513.868 346.849 515.354C346.893 515.962 346.933 516.535 346.922 517.072L346.889 518.77L348.577 518.575C349.035 518.52 349.573 518.522 350.143 518.522C351.594 518.523 353.237 518.525 354.412 517.558L355.154 516.946C371.964 503.099 389.348 488.781 400.885 468.404C407.972 455.886 416.735 443.994 425.209 432.493C429.984 426.012 434.921 419.313 439.522 412.552C445.59 403.635 453.315 396.826 461.496 389.618L462.78 388.486C467.023 384.741 470.396 378.557 471.171 373.098C473.179 358.943 479.438 348.007 489.775 340.595C501.301 332.331 509.802 321.379 517.303 311.716C519.729 308.593 522.093 305.356 524.381 302.225C532.899 290.568 541.709 278.512 555.02 270.582C561.325 266.825 565.927 260.264 570.377 253.919C571.543 252.257 572.746 250.539 573.942 248.936C580.989 239.482 589.415 228.669 600.286 219.992C607.612 214.144 613.504 206.043 618.912 198.247C626.276 187.631 633.901 177.574 646.139 171.198C655.816 166.156 661.373 157.12 666.748 148.381C668.367 145.749 670.038 143.03 671.786 140.493C677.883 131.639 687.091 130.41 695.296 130.375C699.188 130.36 704.441 135.671 704.662 139.849C704.724 141.026 704.778 142.205 704.832 143.386C705.033 147.778 705.239 152.318 705.894 156.755C706.221 158.975 709.835 160.63 711.766 160.934C719.391 162.128 726.514 160.073 733.4 158.085C738.737 156.545 744.254 154.953 749.888 154.945C753.461 154.94 756.689 151.843 759.812 148.848C761.237 147.482 762.711 146.069 764.134 145.036C772.034 139.301 774.443 139.698 777.153 142.859C778.962 144.969 779.848 147.462 779.646 149.875C779.467 152.007 778.437 153.917 776.663 155.397C775.754 156.157 774.815 156.892 773.906 157.606C769.159 161.329 764.253 165.18 762.798 172.98C761.053 182.339 757.775 191.632 754.602 200.62C754.07 202.128 753.539 203.633 753.015 205.138C751.954 208.186 749.839 211.279 747.357 213.415C728.646 229.524 717.172 250.481 712.278 277.485C711.866 279.759 711.02 282.081 710.202 284.325C709.082 287.401 707.923 290.58 707.745 293.889C707.406 300.116 703.766 303.162 699.552 306.688C698.262 307.769 696.927 308.886 695.678 310.121C692.651 313.11 691.186 316.953 691.553 320.941C691.939 325.146 694.329 329.027 698.104 331.588C707.309 337.827 715.667 337.688 720.462 331.202C725.34 324.604 730.171 317.81 734.843 311.238C740.917 302.695 747.197 293.864 753.635 285.387C754.719 283.96 758.043 282.957 762.525 282.703C763.763 282.632 765.653 284.121 767.229 286.408C769.266 289.365 769.956 292.314 769.444 293.455C769.115 294.19 768.867 294.943 768.629 295.672C768.283 296.723 767.958 297.716 767.439 298.493C763.748 304.022 760.028 309.667 756.432 315.125C746.744 329.826 736.726 345.029 726.257 359.518C716.293 373.309 698.798 399.901 693.58 423.04C690.634 436.1 685.598 444.078 676.742 449.715C668.242 455.123 662.742 463.186 657.421 470.982C656.035 473.014 654.65 475.044 653.266 477.077C644.15 490.459 634.724 504.298 624.982 517.543C615.117 530.955 604.917 544.824 593.45 557.326C589.5 561.632 586.94 566.937 584.465 572.069C580.455 580.382 576.667 588.233 567.428 591.96L567.032 592.119L566.782 592.463C563.434 597.076 559.974 601.732 556.625 606.235C548.866 616.669 540.843 627.459 533.633 638.544C526.443 649.598 517.239 662.094 503.479 670.965C498.577 674.126 493.263 679.668 492.439 684.924C490.683 696.124 483.667 703.248 476.239 710.791C471.854 715.243 467.322 719.844 464.031 725.327L463.954 725.454C455.347 739.787 446.447 754.608 436.104 767.903C429.697 776.14 425.64 783.243 423.341 790.257C420.568 798.711 420.312 807.198 422.559 816.204C423.365 819.435 422.681 823.117 421.957 827.014C421.627 828.792 421.286 830.632 421.098 832.432L421.083 832.579C420.385 839.283 420.385 839.283 408.361 854.334C404.544 859.11 402.537 864.009 401.853 870.216C400.865 879.176 398.51 885.625 394.651 889.934C390.199 894.904 383.696 897.098 374.768 896.645C371.766 896.493 368.849 899.157 366.277 901.509C365.756 901.985 365.265 902.435 364.792 902.843C363.681 903.802 363.206 905.245 362.787 906.518C362.573 907.166 362.372 907.778 362.112 908.279C359.503 913.326 358.073 916.096 356.44 917.127C354.941 918.075 352.709 917.904 347.803 917.427C345.02 917.157 342.186 916.812 339.447 916.48C334.772 915.912 329.939 915.326 325.14 915.076C321.24 914.875 316.37 914.929 313.312 917.168C289.721 934.427 271.031 922.908 254.345 907.887C251.57 905.39 249.311 901.51 249.696 899.904C250.849 895.094 251.834 890.161 252.788 885.391C255.763 870.495 258.84 855.092 267.395 841.692C279.013 823.489 290.406 804.727 301.423 786.583C302.967 784.04 304.509 781.498 306.055 778.957C306.878 777.602 306.865 775.925 306.853 774.445C306.848 773.83 306.842 773.248 306.892 772.725L307.122 770.26ZM678.126 368.634L679.028 368.371C679.48 368.24 679.97 368.136 680.49 368.028C681.78 367.756 683.242 367.448 684.403 366.573C685.854 365.479 687.108 363.525 687.677 361.473C687.869 360.781 688.747 357.229 687.158 355.284C686.261 354.183 685.082 353.614 683.752 353.637C681.738 353.672 679.643 355.052 677.694 357.623C674.916 361.285 674.849 364.945 677.502 367.931L678.126 368.634ZM684.457 356.789C684.584 356.872 684.72 356.992 684.859 357.161C685.151 357.518 685.276 359.028 684.817 360.678C684.42 362.109 683.555 363.493 682.617 364.202C681.985 364.678 680.962 364.892 679.879 365.12C679.653 365.167 679.425 365.215 679.194 365.267C678.095 363.55 678.383 361.628 680.06 359.415C681.381 357.673 682.782 356.622 683.807 356.603C683.988 356.604 684.209 356.628 684.457 356.789Z" fill="#030413"/>
</svg>
